<svg width="195" height="55" viewBox="0 0 195 55" fill="none" xmlns="http://www.w3.org/2000/svg">
<path d="M37.4727 46.8741L29.8109 43.0432C27.6752 41.9864 25.1873 41.9864 23.0517 43.0432L15.3678 46.8741C8.80679 50.1547 1.87148 43.0872 5.3061 36.5923L7.11149 33.2017C7.35367 32.7173 7.74998 32.343 8.23435 32.1449L36.0857 19.6173C37.2306 19.1109 38.5736 19.5732 39.146 20.6741L47.5344 36.6143C50.9691 43.0872 44.0338 50.1547 37.4727 46.8741Z" fill="#7E22CE"/>
<path opacity="0.4" d="M34.3463 16.9311L16.1163 25.1434C14.0688 26.0681 11.9992 23.8664 13.056 21.8849L19.7491 9.18113C22.5893 3.78699 30.2952 3.78699 33.1354 9.18112L35.4912 13.6726C36.1076 14.8835 35.6013 16.3586 34.3463 16.9311Z" fill="#7E22CE"/>
<path d="M62.3314 39V10.8813H68.1816V33.9047H80.0707V39H62.3314ZM80.8963 39L90.4076 10.8813H98.1827L107.694 39H101.315L99.4282 33.263H89.1243L87.2372 39H80.8963ZM90.7473 28.1677H97.8053L93.5025 14.8821H95.0878L90.7473 28.1677ZM110.616 39V10.8813H116.278L126.808 24.8463H124.166L134.394 10.8813H140.056V39H134.206V17.3354L136.546 17.8638L125.713 31.8288H124.959L114.504 17.8638L116.466 17.3354V39H110.616ZM142.966 39L152.477 10.8813H160.253L169.764 39H163.385L161.498 33.263H151.194L149.307 39H142.966ZM152.817 28.1677H159.875L155.572 14.8821H157.158L152.817 28.1677ZM175.064 39V33.3385H180.725V39H175.064Z" fill="#7E22CE"/>
</svg>
